<?xml version="1.0" encoding="UTF-8" standalone="no"?>
<!-- Created with Inkscape (http://www.inkscape.org/) -->

<svg
   xmlns:dc="http://purl.org/dc/elements/1.1/"
   xmlns:cc="http://creativecommons.org/ns#"
   xmlns:rdf="http://www.w3.org/1999/02/22-rdf-syntax-ns#"
   xmlns:svg="http://www.w3.org/2000/svg"
   xmlns="http://www.w3.org/2000/svg"
   xmlns:xlink="http://www.w3.org/1999/xlink"
   xmlns:sodipodi="http://sodipodi.sourceforge.net/DTD/sodipodi-0.dtd"
   xmlns:inkscape="http://www.inkscape.org/namespaces/inkscape"
   width="204"
   height="230"
   id="svg2"
   version="1.1"
   inkscape:version="0.48.2 r9819"
   sodipodi:docname="cover.svg"
   inkscape:export-filename="C:\Users\Stephan\Desktop\cover.png"
   inkscape:export-xdpi="90"
   inkscape:export-ydpi="90">
  <defs
     id="defs4">
    <linearGradient
       id="linearGradient4281">
      <stop
         style="stop-color:#ffffff;stop-opacity:1;"
         offset="0"
         id="stop4283" />
      <stop
         id="stop4291"
         offset="0.09259259"
         style="stop-color:#ffffff;stop-opacity:0;" />
      <stop
         id="stop4289"
         offset="0.89999998"
         style="stop-color:#ffffff;stop-opacity:0;" />
      <stop
         style="stop-color:#ffffff;stop-opacity:1;"
         offset="1"
         id="stop4285" />
    </linearGradient>
    <linearGradient
       inkscape:collect="always"
       xlink:href="#linearGradient4281"
       id="linearGradient4287"
       x1="60"
       y1="35"
       x2="100"
       y2="140"
       gradientUnits="userSpaceOnUse" />
    <linearGradient
       inkscape:collect="always"
       xlink:href="#linearGradient4281"
       id="linearGradient4299"
       x1="60"
       y1="35"
       x2="100"
       y2="140"
       gradientUnits="userSpaceOnUse" />
    <linearGradient
       inkscape:collect="always"
       xlink:href="#linearGradient4281"
       id="linearGradient4313"
       gradientUnits="userSpaceOnUse"
       x1="68.485283"
       y1="35.353554"
       x2="96.060661"
       y2="137.87868" />
    <linearGradient
       inkscape:collect="always"
       xlink:href="#linearGradient4281"
       id="linearGradient4315"
       gradientUnits="userSpaceOnUse"
       x1="65.656853"
       y1="36.060661"
       x2="97.17157"
       y2="140.70711" />
  </defs>
  <sodipodi:namedview
     id="base"
     pagecolor="#00a5ff"
     bordercolor="#666666"
     borderopacity="1.0"
     inkscape:pageopacity="0"
     inkscape:pageshadow="2"
     inkscape:zoom="2.828427"
     inkscape:cx="82.152425"
     inkscape:cy="129.09219"
     inkscape:document-units="px"
     inkscape:current-layer="layer2"
     showgrid="true"
     inkscape:window-width="2560"
     inkscape:window-height="1388"
     inkscape:window-x="-8"
     inkscape:window-y="-8"
     inkscape:window-maximized="1"
     inkscape:snap-bbox="true"
     inkscape:snap-global="false">
    <inkscape:grid
       type="xygrid"
       id="grid2985"
       empspacing="5"
       visible="true"
       enabled="true"
       snapvisiblegridlinesonly="true" />
  </sodipodi:namedview>
  <metadata
     id="metadata7">
    <rdf:RDF>
      <cc:Work
         rdf:about="">
        <dc:format>image/svg+xml</dc:format>
        <dc:type
           rdf:resource="http://purl.org/dc/dcmitype/StillImage" />
        <dc:title></dc:title>
      </cc:Work>
    </rdf:RDF>
  </metadata>
  <g
     inkscape:groupmode="layer"
     id="layer2"
     inkscape:label="Ebene"
     style="display:inline"
     transform="translate(0,140)">
    <g
       id="g4317"
       style="opacity:0.1">
      <path
         id="path4141"
         transform="translate(0,-140)"
         d="M 77.6875 -13.21875 C 69.707849 -13.270028 61.551866 -12.172448 53.5 -9.875 C 50.740293 -9.08756 48.004181 -8.15736 45.4375 -7.15625 C 6.2769182 8.11801 -15.090834 48.2251 -5.78125 85.75 L -10.625 87.625 C -10.61262 87.6201 -11.012134 87.72423 -11 87.71875 C -10.98778 87.71325 -11.355658 87.818691 -11.34375 87.8125 C -11.33173 87.8063 -11.667734 88.100449 -11.65625 88.09375 C -11.64481 88.08705 -11.854912 88.13244 -11.84375 88.125 C -11.8325 88.1175 -12.135871 88.414072 -12.125 88.40625 C -12.11426 88.39815 -12.447888 88.695876 -12.4375 88.6875 C -12.42687 88.679 -12.635066 88.72745 -12.625 88.71875 C -12.61487 88.71005 -12.947067 89.009365 -12.9375 89 C -12.9279 88.9906 -13.259052 89.29104 -13.25 89.28125 C -13.2409 89.27155 -13.383549 89.510298 -13.375 89.5 C -13.3661 89.4896 -13.508045 89.760686 -13.5 89.75 C -13.4916 89.7393 -13.820008 90.011025 -13.8125 90 C -13.8044 89.9886 -13.9132 90.417691 -13.90625 90.40625 C -13.89935 90.39471 -14.037645 90.636734 -14.03125 90.625 C -14.02535 90.61374 -14.349547 90.918266 -14.34375 90.90625 C -14.33795 90.89468 -14.41143 91.324833 -14.40625 91.3125 C -14.40075 91.29976 -14.567098 91.543831 -14.5625 91.53125 C -14.558 91.51879 -14.62899 91.950279 -14.625 91.9375 C -14.6217 91.92494 -14.753327 92.200463 -14.75 92.1875 C -14.7469 92.17419 -14.84644 92.606863 -14.84375 92.59375 C -14.84165 92.58072 -14.81453 92.763218 -14.8125 92.75 C -14.8105 92.73659 -14.87634 93.169566 -14.875 93.15625 C -14.873 93.14284 -14.96943 93.575881 -14.96875 93.5625 C -14.967815 93.54937 -14.90603 93.763301 -14.90625 93.75 C -14.906554 93.7364 -14.99935 94.169638 -15 94.15625 C -15.000304 94.14265 -14.90491 94.513284 -14.90625 94.5 C -14.90755 94.48668 -14.81009 94.88812 -14.8125 94.875 C -14.8149 94.86196 -14.7474 95.044356 -14.75 95.03125 C -14.7527 95.01788 -14.84054 95.450523 -14.84375 95.4375 C -14.84705 95.42431 -14.558593 95.762797 -14.5625 95.75 C -14.5664 95.73698 -14.464267 96.137563 -14.46875 96.125 C -14.47095 96.1188 -14.46912 96.200632 -14.4375 96.28125 L -14.375 96.46875 L 3.625 142.90625 C 3.62054 142.89377 3.7242374 143.26217 3.71875 143.25 C 3.71325 143.23779 3.8189959 143.63678 3.8125 143.625 C 3.80596 143.61307 4.0692151 143.94906 4.0625 143.9375 C 4.05596 143.92557 4.132454 144.10495 4.125 144.09375 C 4.11763 144.08285 4.414069 144.41711 4.40625 144.40625 C 4.39784 144.39563 4.6646013 144.72919 4.65625 144.71875 C 4.64784 144.70813 4.727041 144.91642 4.71875 144.90625 C 4.71044 144.896 5.0093736 145.22835 5 145.21875 C 4.99065 145.20878 5.291094 145.54032 5.28125 145.53125 C 5.2721 145.52204 5.510231 145.66486 5.5 145.65625 C 5.489914 145.64769 5.7294001 145.7893 5.71875 145.78125 C 5.707626 145.77297 6.0110376 146.1013 6 146.09375 C 5.989188 146.08663 6.4176864 146.19442 6.40625 146.1875 C 6.395521 146.18069 6.6367722 146.31888 6.625 146.3125 C 6.613233 146.30597 6.9182452 146.63072 6.90625 146.625 C 6.893555 146.61916 7.324821 146.69265 7.3125 146.6875 C 7.299896 146.68242 7.543773 146.81703 7.53125 146.8125 C 7.518342 146.80794 7.950266 146.91019 7.9375 146.90625 C 7.924787 146.90242 8.1691763 147.03459 8.15625 147.03125 C 8.143233 147.02795 8.575618 147.12768 8.5625 147.125 C 8.549366 147.12251 8.7632477 147.06463 8.75 147.0625 C 8.736534 147.06043 9.1695656 147.15759 9.15625 147.15625 C 9.142896 147.1546 9.575862 147.25073 9.5625 147.25 C 9.549029 147.24916 9.7321024 147.18748 9.71875 147.1875 C 9.705501 147.18749 10.138384 147.2806 10.125 147.28125 C 10.1115 147.28197 10.51333 147.18615 10.5 147.1875 C 10.48667 147.18885 10.856985 147.09176 10.84375 147.09375 C 10.83059 147.09572 11.044366 147.02865 11.03125 147.03125 C 11.01825 147.03382 11.450489 147.1218 11.4375 147.125 C 11.42467 147.12821 11.762767 146.83989 11.75 146.84375 C 11.73734 146.84759 12.106318 146.74552 12.09375 146.75 C 12.08765 146.7522 12.200586 146.7188 12.28125 146.6875 L 12.46875 146.65625 L 32.03125 139 C 31.629451 138.47677 31.235511 137.95187 30.84375 137.40625 C 30.809132 137.35804 30.784538 137.29838 30.75 137.25 C 29.900218 136.05953 29.080264 134.78803 28.28125 133.5 C 27.871583 132.83961 27.457964 132.1839 27.0625 131.5 C 26.677493 130.83418 26.308502 130.15549 25.9375 129.46875 C 25.188599 128.0825 24.46979 126.65079 23.78125 125.1875 C 23.649227 124.9077 23.504721 124.62613 23.375 124.34375 C 23.16694 123.88946 22.951996 123.42945 22.75 122.96875 C 22.459101 122.30529 22.152997 121.64469 21.875 120.96875 C 21.776857 120.73077 21.690257 120.48945 21.59375 120.25 C 21.426704 119.83441 21.255812 119.41984 21.09375 119 C 20.910276 118.52597 20.739477 118.04166 20.5625 117.5625 C 20.403438 117.13071 20.27871 116.6857 20.125 116.25 C 19.903799 115.6247 19.678631 115.0078 19.46875 114.375 C 19.389222 114.13463 19.296626 113.89764 19.21875 113.65625 C 19.122111 113.35735 19.031565 113.05039 18.9375 112.75 C 18.777989 112.23946 18.620762 111.73331 18.46875 111.21875 C 18.266959 110.53731 18.063247 109.84407 17.875 109.15625 C 17.838718 109.02331 17.817023 108.88316 17.78125 108.75 C 17.576768 107.99085 17.375026 107.23443 17.1875 106.46875 C 17.171908 106.40501 17.140474 106.34503 17.125 106.28125 C 16.923341 105.45095 16.743646 104.61781 16.5625 103.78125 C 16.237342 102.27962 15.944928 100.75856 15.6875 99.25 C 15.641346 98.978701 15.60644 98.708861 15.5625 98.4375 C 15.440996 97.690025 15.323537 96.965992 15.21875 96.21875 C 15.100259 95.373784 15.003296 94.530759 14.90625 93.6875 C 14.81065 92.856802 14.730967 92.015104 14.65625 91.1875 C 14.627252 90.86325 14.588275 90.542373 14.5625 90.21875 C 14.549033 90.051738 14.54386 89.885578 14.53125 89.71875 C 14.483068 89.07287 14.441543 88.423934 14.40625 87.78125 C 14.395721 87.592995 14.384424 87.406693 14.375 87.21875 C 14.336555 86.436763 14.300502 85.650814 14.28125 84.875 C 14.259417 83.995183 14.247092 83.120174 14.25 82.25 C 14.250842 81.927349 14.245747 81.602403 14.25 81.28125 C 14.253818 81.008073 14.274965 80.740782 14.28125 80.46875 C 14.291452 80.010415 14.295272 79.548618 14.3125 79.09375 C 14.319399 78.915738 14.335776 78.739952 14.34375 78.5625 C 14.44146 76.345787 14.608313 74.1747 14.875 72.0625 C 14.882964 71.999427 14.898135 71.937965 14.90625 71.875 C 15.199387 69.60052 15.602042 67.394658 16.09375 65.28125 C 16.094617 65.26052 16.092858 65.239479 16.09375 65.21875 C 17.009597 43.930255 30.853375 23.491576 53.90625 14.5 C 74.796181 6.3520535 96.523257 10.224985 111.65625 22.21875 C 115.66811 23.825441 119.69986 26.386989 123.53125 29.75 C 132.66161 37.7642 140.79073 50.300498 146.03125 64.09375 C 149.52574 73.276837 151.69801 82.88932 152.3125 91.84375 L 153.15625 91.53125 C 153.51495 92.206301 153.81692 92.848081 154.28125 93.53125 C 158.67702 99.998853 164.64224 104.00126 171.0625 105.5 C 182.32422 108.12892 192.67953 105.08668 200.8125 105.1875 C 206.43717 107.63897 211.52678 109.83241 214.65625 112.5625 A 3.763647 3.763647 0 0 0 214.6875 112.75 C 214.6772 112.7415 214.91667 112.88279 214.90625 112.875 C 214.89585 112.8677 215.38578 113.13233 215.375 113.125 C 215.3646 113.1177 215.60486 113.25676 215.59375 113.25 C 215.58275 113.2433 215.824 113.38126 215.8125 113.375 C 215.8011 113.3688 216.07429 113.53695 216.0625 113.53125 C 216.051 113.52585 216.48074 113.59883 216.46875 113.59375 C 216.45725 113.58835 216.69973 113.72324 216.6875 113.71875 C 216.675 113.71405 217.10623 113.81644 217.09375 113.8125 C 217.08105 113.8087 217.32511 113.94084 217.3125 113.9375 C 217.2999 113.934 217.73151 114.03398 217.71875 114.03125 C 217.70565 114.02875 217.95037 114.15832 217.9375 114.15625 C 217.9245 114.15415 218.35666 114.25146 218.34375 114.25 C 218.33085 114.2482 218.5443 114.18844 218.53125 114.1875 C 218.51815 114.18659 218.95055 114.28142 218.9375 114.28125 C 218.9246 114.28104 219.29425 114.18706 219.28125 114.1875 C 219.26845 114.18787 219.70042 114.24896 219.6875 114.25 C 219.6741 114.2512 219.88791 114.21706 219.875 114.21875 C 219.8618 114.22055 220.23153 114.12269 220.21875 114.125 C 220.20575 114.1274 220.60648 114.0283 220.59375 114.03125 C 220.58085 114.03425 220.95007 113.93395 220.9375 113.9375 C 220.9248 113.9411 221.13737 113.87086 221.125 113.875 C 221.1124 113.8792 221.48088 113.77652 221.46875 113.78125 C 221.45635 113.78605 221.85564 113.68218 221.84375 113.6875 C 221.83155 113.6929 222.16787 113.40036 222.15625 113.40625 C 222.14415 113.41225 222.32385 113.36856 222.3125 113.375 C 222.3013 113.3814 222.63604 113.08673 222.625 113.09375 C 222.614 113.10075 223.01062 112.99232 223 113 C 222.9892 113.0077 223.13528 112.77319 223.125 112.78125 C 223.1147 112.78925 223.47858 112.67883 223.46875 112.6875 C 223.45865 112.6962 223.60322 112.42852 223.59375 112.4375 C 223.58475 112.446 223.91527 112.17808 223.90625 112.1875 C 223.89725 112.1968 224.03976 111.92766 224.03125 111.9375 A 3.763647 3.763647 0 0 0 224.21875 111.90625 L 228 107.4375 C 227.992 107.44782 228.13279 107.20833 228.125 107.21875 C 228.118 107.22914 228.41357 106.77043 228.40625 106.78125 C 228.39925 106.79164 228.53801 106.52014 228.53125 106.53125 C 228.52425 106.54231 228.66247 106.30101 228.65625 106.3125 C 228.65025 106.32382 228.78695 106.08196 228.78125 106.09375 C 228.77625 106.10525 228.8801 105.67552 228.875 105.6875 C 228.87 105.699 229.00449 105.45652 229 105.46875 C 228.995 105.48127 229.09765 105.05004 229.09375 105.0625 C 229.08975 105.0752 229.22206 104.83115 229.21875 104.84375 C 229.21575 104.85634 229.28395 104.4247 229.28125 104.4375 C 229.27925 104.45064 229.43956 104.17463 229.4375 104.1875 C 229.4355 104.20056 229.5014 103.76831 229.5 103.78125 C 229.498 103.7942 229.46965 103.61195 229.46875 103.625 C 229.46781 103.63813 229.53145 103.20571 229.53125 103.21875 C 229.53104 103.23168 229.437 102.8308 229.4375 102.84375 C 229.43791 102.85652 229.53015 102.42455 229.53125 102.4375 C 229.53225 102.45087 229.46705 102.26834 229.46875 102.28125 C 229.47075 102.29446 229.3727 101.89351 229.375 101.90625 C 229.377 101.91929 229.27825 101.54977 229.28125 101.5625 C 229.28425 101.57538 229.1839 101.17493 229.1875 101.1875 C 229.1915 101.20022 229.15205 101.01888 229.15625 101.03125 C 229.16025 101.0438 229.05778 100.64407 229.0625 100.65625 C 229.0675 100.66865 228.96343 100.3006 228.96875 100.3125 C 228.97375 100.32473 228.68161 99.988379 228.6875 100 C 228.6935 100.01207 228.6185 99.801161 228.625 99.8125 C 228.631 99.82365 228.36798 99.488965 228.375 99.5 C 228.382 99.51101 228.27361 99.14562 228.28125 99.15625 C 228.28925 99.16707 228.02318 99.020977 228.03125 99.03125 C 228.03925 99.04158 227.92884 98.646414 227.9375 98.65625 C 227.9465 98.66639 227.70978 98.521821 227.71875 98.53125 C 227.72775 98.54065 227.42808 98.209725 227.4375 98.21875 C 227.4465 98.22795 227.2089 98.085241 227.21875 98.09375 C 220.52858 92.257383 213.07358 89.246912 207.125 86.65625 A 3.763647 3.763647 0 0 0 206.71875 86.5625 A 3.763647 3.763647 0 0 0 206.09375 86.34375 C 206.09975 86.34575 205.97892 86.42858 205.90625 86.40625 A 3.763647 3.763647 0 0 0 205.6875 86.28125 C 205.6935 86.28285 205.57381 86.33054 205.5 86.3125 C 205.38927 86.28522 205.27228 86.185558 205.28125 86.1875 C 205.29625 86.1907 204.85987 86.09137 204.875 86.09375 C 204.89 86.09575 204.45349 86.02974 204.46875 86.03125 A 3.763647 3.763647 0 0 0 204.3125 86.0625 L 203.90625 86 C 203.83945 85.9954 203.78544 86.0355 203.71875 86.03125 C 197.36053 85.624245 191.45107 86.023585 186.59375 86.40625 C 181.68547 86.792886 177.74077 86.94077 175.71875 86.46875 C 173.79153 86.018871 172.58014 85.469391 171.5 84.34375 L 172.90625 83.78125 C 172.89385 83.78615 173.26217 83.682009 173.25 83.6875 C 173.2378 83.693 173.60562 83.587562 173.59375 83.59375 C 173.58175 83.59995 173.91781 83.305781 173.90625 83.3125 C 173.89445 83.3193 174.10495 83.24255 174.09375 83.25 C 174.08285 83.2574 174.41707 82.99219 174.40625 83 C 174.39555 83.0081 174.72918 82.710362 174.71875 82.71875 C 174.70815 82.72725 174.88506 82.64755 174.875 82.65625 C 174.8649 82.66495 175.19707 82.396887 175.1875 82.40625 C 175.1775 82.41575 175.50909 82.115202 175.5 82.125 C 175.491 82.1347 175.63359 81.895941 175.625 81.90625 C 175.617 81.91654 175.7893 81.645602 175.78125 81.65625 C 175.77325 81.66696 176.07004 81.395214 176.0625 81.40625 C 176.0555 81.41737 176.16315 80.98857 176.15625 81 C 176.14925 81.01146 176.28768 80.738257 176.28125 80.75 C 176.27425 80.76146 176.59954 80.487985 176.59375 80.5 C 176.58775 80.51166 176.6927 80.081426 176.6875 80.09375 C 176.6825 80.10637 176.81702 79.831189 176.8125 79.84375 C 176.8075 79.85626 176.91015 79.424732 176.90625 79.4375 C 176.90225 79.45019 177.03458 79.205786 177.03125 79.21875 C 177.02825 79.23209 177.1277 78.799386 177.125 78.8125 C 177.123 78.82564 177.0646 78.643004 177.0625 78.65625 C 177.0605 78.66969 177.15755 78.236682 177.15625 78.25 C 177.15425 78.26332 177.21945 77.830433 177.21875 77.84375 C 177.21781 77.85688 177.1875 77.642894 177.1875 77.65625 C 177.18759 77.6699 177.2494 77.236613 177.25 77.25 C 177.25072 77.26349 177.15495 76.892928 177.15625 76.90625 C 177.15725 76.91957 177.0605 76.518095 177.0625 76.53125 C 177.0645 76.5444 177.02865 76.330643 177.03125 76.34375 C 177.03425 76.35712 177.09055 75.955763 177.09375 75.96875 C 177.09675 75.98194 176.83989 75.643483 176.84375 75.65625 C 176.84775 75.66927 176.7455 75.26865 176.75 75.28125 C 176.752 75.28745 176.7188 75.174458 176.6875 75.09375 L 176.65625 74.9375 L 158.65625 28.5 C 158.66125 28.5124 158.557 28.11283 158.5625 28.125 C 158.5685 28.1372 158.46255 27.76939 158.46875 27.78125 C 158.47475 27.79325 158.18078 27.45719 158.1875 27.46875 C 158.1945 27.48055 158.1175 27.27004 158.125 27.28125 C 158.132 27.29215 157.86718 26.98914 157.875 27 C 157.883 27.0107 157.58536 26.67707 157.59375 26.6875 C 157.60275 26.6981 157.52255 26.48994 157.53125 26.5 C 157.54025 26.5101 157.27188 26.1779 157.28125 26.1875 C 157.29025 26.1975 156.99021 25.86596 157 25.875 C 157.01 25.884 156.77095 25.74145 156.78125 25.75 C 156.79155 25.759 156.52056 25.61696 156.53125 25.625 C 156.54195 25.633 156.27023 25.30503 156.28125 25.3125 C 156.29235 25.3195 155.86356 25.21185 155.875 25.21875 C 155.8864 25.22575 155.61323 25.08737 155.625 25.09375 C 155.6365 25.10075 155.36295 24.77547 155.375 24.78125 C 155.3867 24.78725 154.95642 24.71365 154.96875 24.71875 C 154.98135 24.72375 154.70619 24.55798 154.71875 24.5625 C 154.73125 24.5675 154.33098 24.4961 154.34375 24.5 C 154.35645 24.504 154.08079 24.37168 154.09375 24.375 C 154.10705 24.378 153.67439 24.27855 153.6875 24.28125 C 153.7006 24.28325 153.518 24.3104 153.53125 24.3125 C 153.54465 24.3145 153.11168 24.2487 153.125 24.25 C 153.1383 24.252 152.70536 24.15555 152.71875 24.15625 C 152.73185 24.15718 152.51789 24.21875 152.53125 24.21875 C 152.54495 24.21866 152.11165 24.1256 152.125 24.125 C 152.1385 24.12428 151.76793 24.22015 151.78125 24.21875 C 151.79455 24.21775 151.39302 24.3145 151.40625 24.3125 C 151.41935 24.3105 151.2369 24.3776 151.25 24.375 C 151.2634 24.372 150.83081 24.28445 150.84375 24.28125 C 150.85695 24.27825 150.51848 24.56637 150.53125 24.5625 C 150.54425 24.5585 150.14365 24.66076 150.15625 24.65625 C 150.16225 24.65425 150.08072 24.6562 150 24.6875 C 149.9193 24.7188 149.80631 24.7526 149.8125 24.75 L 146.34375 26.0625 C 132.69999 1.5283125 106.18625 -13.035614 77.6875 -13.21875 z "
         style="opacity:0.40000000000000002;color:#000000;fill:#ffffff;fill-opacity:1;fill-rule:nonzero;stroke:none;stroke-width:1;marker:none;visibility:visible;display:inline;overflow:visible;enable-background:accumulate" />
      <path
         transform="translate(0,-140)"
         sodipodi:nodetypes="ssccsscssccs"
         inkscape:connector-curvature="0"
         id="path4800-4"
         d="m 59.65625,13.84375 c -1.240403,-0.01294 -2.493636,0.152828 -3.71875,0.53125 -7.70407,2.379685 -10.89457,12.75913 -11.28125,26.53125 32.921085,11.804182 46.387328,76.03214 28.78125,102.53125 11.839838,15.46535 17.588284,35.96503 -70.875,43.15625 -15.374619,1.24981 -14.171626,9.79212 -9.6875,29.71875 4.4841833,19.92655 66.97515,10.5666 145.53125,-15.34375 C 167.46974,190.60737 230.08061,172.75414 222.5,137.5 214.91939,102.24586 204.42021,120.02266 180.75,132.59375 140.38692,154.0303 132.19036,145.64284 126.6875,130.25 93.100454,122.34157 70.461793,62.115407 83.78125,33.34375 75.941658,21.866558 67.670708,13.927365 59.65625,13.84375 z"
         style="color:#000000;fill:#ffffff;fill-opacity:0.50196078000000000;fill-rule:nonzero;stroke:url(#linearGradient4313);stroke-width:5.91135262999999970;stroke-linecap:butt;stroke-linejoin:miter;stroke-miterlimit:4;stroke-opacity:1;stroke-dasharray:none;stroke-dashoffset:0;marker:none;visibility:visible;display:inline;overflow:visible;enable-background:accumulate" />
      <path
         id="rect4084"
         transform="translate(0,-140)"
         d="M 152.375 30.96875 L 132.0625 38.90625 C 137.64936 46.065821 142.49504 54.786304 146.03125 64.09375 C 148.62791 70.917454 150.49205 77.990985 151.53125 84.84375 L 170.5 77.4375 L 152.375 30.96875 z "
         style="color:#000000;fill:#ffffff;fill-opacity:1;fill-rule:nonzero;stroke:none;stroke-width:1;marker:none;visibility:visible;display:inline;overflow:visible;enable-background:accumulate" />
      <path
         id="rect4082"
         transform="translate(0,-140)"
         d="M 14.28125 85.125 L -8.25 93.9375 L 9.875 140.40625 L 28.125 133.28125 C 26.410444 130.49465 24.821202 127.50145 23.375 124.34375 C 23.186178 123.93147 22.996332 123.51132 22.8125 123.09375 C 22.287364 121.90091 21.764158 120.70098 21.28125 119.46875 C 21.277711 119.45972 21.284787 119.44653 21.28125 119.4375 C 20.958166 118.61406 20.647102 117.77647 20.34375 116.9375 C 20.313602 116.85396 20.27995 116.77119 20.25 116.6875 C 19.976941 115.92595 19.725006 115.14788 19.46875 114.375 C 19.18051 113.50379 18.89129 112.63386 18.625 111.75 C 18.232812 110.44826 17.873922 109.13693 17.53125 107.8125 C 17.186045 106.47828 16.855142 105.13272 16.5625 103.78125 C 16.394545 103.00561 16.243661 102.21554 16.09375 101.4375 C 15.96349 100.76145 15.835346 100.08328 15.71875 99.40625 C 15.681063 99.186788 15.629991 98.969516 15.59375 98.75 C 15.539958 98.425237 15.48814 98.106051 15.4375 97.78125 C 15.358237 97.271104 15.290203 96.759987 15.21875 96.25 C 15.164315 95.86267 15.112433 95.480811 15.0625 95.09375 C 14.970075 94.375118 14.889391 93.654499 14.8125 92.9375 C 14.781194 92.646676 14.747492 92.352948 14.71875 92.0625 C 14.678332 91.652479 14.660323 91.252866 14.625 90.84375 C 14.593408 90.48005 14.558792 90.112865 14.53125 89.75 C 14.475246 89.006564 14.414094 88.270321 14.375 87.53125 C 14.373322 87.499804 14.376647 87.468937 14.375 87.4375 C 14.335004 86.667565 14.302878 85.888955 14.28125 85.125 z "
         style="color:#000000;fill:#ffffff;fill-opacity:1;fill-rule:nonzero;stroke:none;stroke-width:1;marker:none;visibility:visible;display:inline;overflow:visible;enable-background:accumulate" />
      <path
         transform="translate(0,-140)"
         id="path117-4"
         d="M 59.6875 20.5625 C 53.652321 20.626405 49.83987 27.789928 50.96875 43.5 C 54.823158 45.685454 58.548643 48.893423 61.9375 52.90625 C 69.763207 62.17286 75.94098 75.77184 79.0625 90.1875 C 82.18402 104.60316 82.194243 119.53381 78.90625 131.21875 C 78.308527 133.34295 77.595679 135.35836 76.78125 137.25 C 77.783376 138.77246 78.937153 140.42785 80.3125 142.25 C 84.933823 148.37266 88.038942 156.66371 85.0625 164.3125 C 82.086049 171.9613 71.507966 178.78748 59.1875 183.28125 C 46.867045 187.77502 29.003955 191.25858 2.96875 193.375 C -0.25113317 193.63673 -1.8455845 194.2586 -2.40625 194.625 C -2.9669339 194.99137 -2.9806588 194.90986 -3.21875 196 C -3.6948836 198.18035 -2.8827788 204.91823 -0.65625 214.8125 C -0.4750356 215.61799 -0.11163895 216.19201 1.09375 217.03125 C 2.2991494 217.87048 4.5890593 218.77146 7.84375 219.40625 C 14.353131 220.67584 24.441498 220.76549 37.0625 219.25 C 62.263678 216.22393 97.287959 207.42532 136.21875 194.59375 C 136.26725 194.5763 136.35735 194.54881 136.40625 194.53125 C 151.22688 189.25426 173.63904 182.26793 190.96875 172.65625 C 199.66221 167.83455 206.97501 162.30894 211.34375 156.65625 C 215.71249 151.00357 217.40997 145.62908 215.9375 138.78125 C 214.1331 130.38969 212.03178 125.61761 210.84375 124.09375 C 209.65568 122.5699 210.7205 123.21456 209.1875 123.59375 C 206.1215 124.3521 196.53864 131.69727 183.90625 138.40625 C 170.26445 145.65132 160.12601 149.8205 151.625 151.4375 C 143.124 153.05448 135.67058 151.84978 130.40625 147.9375 C 125.1419 144.02523 122.65204 138.45149 120.65625 132.96875 C 120.04103 131.27865 119.49052 129.55693 118.9375 127.84375 C 115.48925 126.2324 112.04704 123.92524 108.75 121.03125 C 99.61964 113.01704 91.459265 100.48075 86.21875 86.6875 C 80.97098 72.896995 78.741591 58.16106 80.25 46.125 C 80.528515 43.902641 80.931959 41.770043 81.46875 39.75 C 73.851686 27.415028 65.682124 20.499024 59.6875 20.5625 z "
         style="opacity:0.25000000000000000;fill:none;stroke:url(#linearGradient4315);stroke-width:5.91135311000000030;stroke-linecap:butt;stroke-linejoin:miter;stroke-miterlimit:4;stroke-opacity:1;stroke-dasharray:none" />
      <path
         inkscape:connector-curvature="0"
         style="opacity:0.10000000000000001;fill:#ffffff;fill-opacity:1;fill-rule:evenodd;stroke:none"
         id="path3144-3"
         d="M 204.94505,-10.900001 C 156.91487,34.496217 87.845957,38.781647 3.4199116,77.101292 3.6959918,77.150215 3.5604371,76.235648 3.8520825,76.278939 10.243347,77.227427 20.635642,77.855497 33.182396,76.154177 58.275977,72.751557 95.54201,64.563141 134.6086,51.962971 c 33.92137,-10.922154 66.80209,-24.627134 73.94253,-37.446914 12.88645,-18.6732604 -7.5267,-31.512648 -3.60608,-25.416058 z" />
      <path
         id="path4113"
         transform="translate(0,-140)"
         d="M 77.5 -6.53125 C 67.709569 -6.54731 57.665072 -4.7247875 47.875 -0.90625 C 8.714709 14.36788 -11.468626 56.067484 2.65625 92.28125 C 3.6333368 94.786229 4.9119376 97.245937 6.15625 99.5625 L 15.15625 95.9375 C 15.046117 95.13584 14.965818 94.331256 14.875 93.53125 C 14.026474 91.904019 13.243477 90.245918 12.5625 88.5 C 0.40150695 57.321292 17.784443 21.40047 51.5 8.25 C 85.215536 -4.90047 122.46401 9.696302 134.625 40.875 C 135.00723 41.854923 135.32656 42.842342 135.625 43.84375 C 136.52136 45.17992 137.40714 46.558179 138.25 47.96875 L 146.75 44.6875 C 146.09723 42.140216 145.47712 39.56747 144.5 37.0625 C 133.90638 9.9021575 106.87129 -6.48307 77.5 -6.53125 z "
         style="color:#000000;fill:#ffffff;fill-opacity:1;fill-rule:nonzero;stroke:none;stroke-width:1;marker:none;visibility:visible;display:inline;overflow:visible;enable-background:accumulate" />
      <path
         id="path3914-1"
         transform="translate(0,-140)"
         d="M 39.15625 46.125 C 38.36951 46.1409 37.61618 46.24486 36.875 46.40625 C 30.94555 47.69743 25.36198 53.950676 22.4375 64.34375 C 19.51302 74.73682 19.40434 88.956835 22.34375 102.53125 C 25.28311 116.10567 31.26061 129.0107 38.21875 137.25 C 45.17689 145.4893 52.82055 148.82243 58.75 147.53125 C 64.67945 146.24007 70.26302 140.01807 73.1875 129.625 C 76.11198 119.23193 76.22066 105.01192 73.28125 91.4375 C 70.34189 77.863088 64.36439 64.958054 57.40625 56.71875 C 52.18765 50.53928 46.57739 47.09959 41.59375 46.3125 C 40.76314 46.1813 39.94299 46.10913 39.15625 46.125 z M 53.84375 93.75 A 13.593361 15.571138 0.016169773 0 1 66.8125 106.125 A 13.593361 15.571138 0.016169773 1 1 40.1875 112.5 A 13.593361 15.571138 0.016169773 0 1 53.84375 93.75 z "
         style="opacity:1;fill:#ffffff;fill-opacity:1;stroke:#ffffff;stroke-width:1.10599649000000010;stroke-opacity:1;display:inline" />
      <path
         id="path3914-9-5"
         transform="translate(0,-140)"
         d="M 102.40625 26.21875 C 100.72125 26.20235 99.13829 26.46383 97.71875 27 C 92.04061 29.1447 87.46606 36.143036 86.125 46.84375 C 84.78394 57.54447 86.80842 71.607886 91.75 84.59375 C 96.68474 97.582193 104.50238 109.4641 112.625 116.59375 C 120.74762 123.72335 128.85311 125.92595 134.53125 123.78125 C 140.20939 121.63656 144.81519 114.63821 146.15625 103.9375 C 147.49731 93.236789 145.47283 79.173364 140.53125 66.1875 C 135.59651 53.199056 127.74762 41.317174 119.625 34.1875 C 113.53304 28.84026 107.46126 26.26785 102.40625 26.21875 z M 122.125 72.875 A 12.227193 16.671285 0.082835782 0 1 134.0625 87.40625 A 12.227193 16.671285 0.082835782 1 1 109.625 91.65625 A 12.227193 16.671285 0.082835782 0 1 122.125 72.875 z "
         style="opacity:1;fill:#ffffff;fill-opacity:1;stroke:#ffffff;stroke-width:1.10599649000000010;stroke-opacity:1;display:inline" />
      <path
         inkscape:connector-curvature="0"
         style="font-size:medium;font-style:normal;font-variant:normal;font-weight:normal;font-stretch:normal;text-indent:0;text-align:start;text-decoration:none;line-height:normal;letter-spacing:normal;word-spacing:normal;text-transform:none;direction:ltr;block-progression:tb;writing-mode:lr-tb;text-anchor:start;baseline-shift:baseline;color:#000000;fill:#ffffff;fill-opacity:1;stroke:none;stroke-width:1px;marker:none;visibility:visible;display:inline;overflow:visible;enable-background:accumulate;font-family:Sans;-inkscape-font-specification:Sans"
         id="path4098"
         d="m 151.988,-73.571998 c 1.72289,10.707488 4.27638,18.184967 7.78642,23.349402 3.51006,5.164426 8.12761,8.016805 12.96951,9.14709 9.55719,2.231023 19.82603,-0.944958 29.9268,-0.369009 5.99416,2.602669 11.89592,5.094879 16.37258,9.000224 l 3.77871,-4.454934 c -5.62588,-4.90791 -12.30378,-7.517033 -18.40881,-10.175841 l -0.45245,-0.261222 -0.58311,-0.03498 c -11.57909,-0.77414 -22.00633,2.116811 -29.3437,0.403989 -3.6687,-0.856415 -6.66051,-2.574134 -9.43237,-6.652432 -2.77187,-4.0783 -5.06963,-10.5591 -6.71239,-20.768491 l -5.90117,0.816224 z" />
    </g>
  </g>
</svg>
