<?xml version="1.0" encoding="UTF-8" standalone="no"?>
<!-- Created with Inkscape (http://www.inkscape.org/) -->

<svg
   xmlns:dc="http://purl.org/dc/elements/1.1/"
   xmlns:cc="http://creativecommons.org/ns#"
   xmlns:rdf="http://www.w3.org/1999/02/22-rdf-syntax-ns#"
   xmlns:svg="http://www.w3.org/2000/svg"
   xmlns="http://www.w3.org/2000/svg"
   xmlns:xlink="http://www.w3.org/1999/xlink"
   xmlns:sodipodi="http://sodipodi.sourceforge.net/DTD/sodipodi-0.dtd"
   xmlns:inkscape="http://www.inkscape.org/namespaces/inkscape"
   width="86"
   height="86"
   id="svg2"
   version="1.1"
   inkscape:version="0.48.2 r9819"
   sodipodi:docname="gpodder-sailfish.svg"
   inkscape:export-filename="C:\Users\Stephan\Desktop\double-shape.png"
   inkscape:export-xdpi="90"
   inkscape:export-ydpi="90">
  <defs
     id="defs4">
    <linearGradient
       id="linearGradient3789-6">
      <stop
         style="stop-color:#7f5785;stop-opacity:1;"
         offset="0"
         id="stop3791-0" />
      <stop
         style="stop-color:#ddcfdf;stop-opacity:1;"
         offset="1"
         id="stop3793-4" />
    </linearGradient>
    <linearGradient
       inkscape:collect="always"
       xlink:href="#linearGradient3789-6"
       id="linearGradient3889"
       gradientUnits="userSpaceOnUse"
       gradientTransform="matrix(1.0000117,0,0,1,-3.51e-6,4)"
       x1="85.999001"
       y1="86"
       x2="11.999863"
       y2="13" />
    <filter
       x="-0.063521519"
       y="-0.45755345"
       width="1.127043"
       height="1.9151069"
       color-interpolation-filters="sRGB"
       id="filter3973">
      <feGaussianBlur
         stdDeviation="1.0784638"
         id="feGaussianBlur3975" />
    </filter>
    <linearGradient
       id="linearGradient7462-8">
      <stop
         id="stop7464-6"
         style="stop-color:#ffffff;stop-opacity:1"
         offset="0" />
      <stop
         id="stop7466-89"
         style="stop-color:#e5e5e5;stop-opacity:1"
         offset="1" />
    </linearGradient>
    <radialGradient
       inkscape:collect="always"
       xlink:href="#linearGradient7462-8"
       id="radialGradient3849"
       gradientUnits="userSpaceOnUse"
       gradientTransform="matrix(3.858241,-0.38456594,0.11361714,1.1149556,278.03025,-59.977199)"
       cx="-60.648643"
       cy="72.83783"
       fx="-60.648643"
       fy="72.83783"
       r="13.860751" />
    <radialGradient
       inkscape:collect="always"
       xlink:href="#linearGradient7462-8"
       id="radialGradient3853"
       gradientUnits="userSpaceOnUse"
       gradientTransform="matrix(3.8732205,0.1836853,-0.05439206,1.1193401,272.761,-25.020028)"
       cx="-60.648643"
       cy="72.83783"
       fx="-60.648643"
       fy="72.83783"
       r="13.860751" />
  </defs>
  <sodipodi:namedview
     id="base"
     pagecolor="#ffffff"
     bordercolor="#666666"
     borderopacity="1.0"
     inkscape:pageopacity="0"
     inkscape:pageshadow="2"
     inkscape:zoom="5.6568542"
     inkscape:cx="30.323916"
     inkscape:cy="56.334196"
     inkscape:document-units="px"
     inkscape:current-layer="layer2"
     showgrid="true"
     inkscape:window-width="1568"
     inkscape:window-height="1196"
     inkscape:window-x="413"
     inkscape:window-y="98"
     inkscape:window-maximized="0"
     inkscape:snap-bbox="true"
     inkscape:snap-global="true">
    <inkscape:grid
       type="xygrid"
       id="grid2985"
       empspacing="5"
       visible="false"
       enabled="true"
       snapvisiblegridlinesonly="true" />
  </sodipodi:namedview>
  <metadata
     id="metadata7">
    <rdf:RDF>
      <cc:Work
         rdf:about="">
        <dc:format>image/svg+xml</dc:format>
        <dc:type
           rdf:resource="http://purl.org/dc/dcmitype/StillImage" />
        <dc:title />
      </cc:Work>
    </rdf:RDF>
  </metadata>
  <g
     inkscape:groupmode="layer"
     id="layer2"
     inkscape:label="Ebene"
     style="display:inline"
     transform="translate(0,-4)">
    <path
       inkscape:connector-curvature="0"
       style="fill:url(#linearGradient3889);fill-opacity:1"
       id="path11"
       d="M 43.0005,4.3 C 19.417224,4.3 0.3,23.418 0.3,47 c 0,0.408 0,41.277 0,41.277 0,0.786 0.63700745,1.423 1.4230166,1.423 H 84.276983 c 0.786009,0 1.423016,-0.637 1.423016,-1.423 0,0 0,-40.908 0,-41.277 C 85.700999,23.418 66.583776,4.3 43.0005,4.3 z"
       inkscape:export-filename="C:\Users\Stephan\Desktop\path11.png"
       inkscape:export-xdpi="90"
       inkscape:export-ydpi="90" />
    <g
       id="g3862">
      <path
         inkscape:connector-curvature="0"
         style="opacity:0.4;color:#000000;fill:#ffffff;fill-opacity:1;fill-rule:nonzero;stroke:none;stroke-width:1;marker:none;visibility:visible;display:inline;overflow:visible;enable-background:accumulate"
         id="path4141"
         d="m 42.425386,19.194587 c -0.738217,0.01192 -1.481653,0.0647 -2.18613,0.142574 -10.748415,1.188127 -18.729606,9.730384 -18.914784,19.675176 l -1.330688,0.142573 c 0.0034,-4e-4 -0.09843,5.67e-4 -0.09505,0 0.0034,-5.66e-4 -0.09841,7.35e-4 -0.09504,0 0.0034,-7.34e-4 -0.09836,0.04842 -0.09506,0.04752 0.0033,-9e-4 -0.05079,0.0011 -0.04752,0 0.0033,-0.0011 -0.09826,0.04874 -0.09504,0.04752 0.0032,-0.0013 -0.09819,0.04891 -0.09505,0.04752 0.0032,-0.0014 -0.0506,0.0015 -0.04752,0 0.0031,-0.0015 -0.09804,0.04921 -0.09504,0.04752 0.003,-0.0017 -0.09795,0.04935 -0.09505,0.04752 0.0029,-0.0018 -0.05033,0.04951 -0.04752,0.04752 0.0029,-0.002 -0.05023,0.04964 -0.04752,0.04752 0.0028,-0.0021 -0.09765,0.04976 -0.09505,0.04752 0.0027,-0.0023 -0.05001,0.09742 -0.04752,0.09504 0.0024,-0.0024 -0.04989,0.05001 -0.04752,0.04752 0.0023,-0.0024 -0.09728,0.05012 -0.09504,0.04752 0.0022,-0.0025 -0.04963,0.09776 -0.04752,0.09504 0.0021,-0.0028 -0.0495,0.05034 -0.04752,0.04752 0.002,-0.0028 -0.04936,0.09795 -0.04752,0.09504 0.0018,-0.0029 -0.04921,0.05052 -0.04752,0.04752 0.0017,-0.0031 -0.04906,0.09812 -0.04752,0.09504 0.0015,-0.0031 -0.0014,0.05067 0,0.04752 0.0014,-0.0032 -0.04874,0.09826 -0.04752,0.09504 0.0013,-0.0032 -0.04858,0.09832 -0.04752,0.09504 0.0011,-0.0032 -8.97e-4,0.05084 0,0.04752 8.98e-4,-0.0034 -0.04825,0.09841 -0.04752,0.09504 7.32e-4,-0.0034 -5.64e-4,0.09844 0,0.09505 5.65e-4,-0.0034 -3.95e-4,0.09846 0,0.09504 3.97e-4,-0.0034 -2.27e-4,0.05095 0,0.04752 2.28e-4,-0.0035 -0.04759,0.09849 -0.04752,0.09504 5.7e-5,-0.0035 0.04764,0.09849 0.04752,0.09505 -1.12e-4,-0.0035 2.83e-4,0.09847 0,0.09505 -1.41e-4,-0.0017 -0.0024,0.02538 0,0.04752 l 0,0.04752 1.378214,12.736588 c -4e-4,-0.0034 5.67e-4,0.09843 0,0.09504 -5.69e-4,-0.0034 7.35e-4,0.0984 0,0.09504 -7.35e-4,-0.0034 0.04842,0.09836 0.04752,0.09504 -9e-4,-0.0034 0.0011,0.0508 0,0.04752 -0.0011,-0.0032 0.04874,0.09826 0.04752,0.09504 -0.0013,-0.0032 0.0489,0.09819 0.04752,0.09504 -0.0014,-0.0032 0.0015,0.0506 0,0.04752 -0.0015,-0.0031 0.04921,0.09805 0.04752,0.09504 -0.0017,-0.0031 0.04936,0.09795 0.04752,0.09504 -0.0018,-0.0029 0.04949,0.05034 0.04752,0.04752 -0.002,-0.0028 0.04963,0.05023 0.04752,0.04752 -0.0021,-0.0028 0.04976,0.09765 0.04752,0.09504 -0.0022,-0.0025 0.09742,0.05 0.09504,0.04752 -0.0023,-0.0024 0.05002,0.04989 0.04752,0.04752 -0.0025,-0.0024 0.05012,0.09728 0.04752,0.09506 -0.0027,-0.0023 0.09776,0.04962 0.09504,0.04752 -0.0028,-0.0021 0.05033,0.04948 0.04752,0.04752 -0.0029,-0.002 0.09795,0.04935 0.09504,0.04752 -0.0029,-0.0018 0.05051,0.04921 0.04752,0.04752 -0.003,-0.0017 0.09812,0.04906 0.09504,0.04752 -0.0031,-0.0015 0.05067,0.0014 0.04752,0 -0.0032,-0.0014 0.09826,0.04874 0.09504,0.04752 -0.0032,-0.0013 0.09831,0.04859 0.09504,0.04752 -0.0033,-0.0011 0.05084,8.98e-4 0.04752,0 -0.0033,-8.97e-4 0.09841,0.04825 0.09504,0.04752 -0.0034,-7.31e-4 0.09844,5.64e-4 0.09504,0 -0.0034,-5.64e-4 0.09846,3.97e-4 0.09504,0 -0.0034,-3.97e-4 0.05095,2.27e-4 0.04752,0 -0.0034,-2.26e-4 0.09848,0.04759 0.09504,0.04752 -0.0034,-5.7e-5 0.09848,-0.04763 0.09505,-0.04752 -0.0034,1.12e-4 0.09847,-2.82e-4 0.09505,0 -0.0017,1.42e-4 0.02538,0.0024 0.04752,0 l 0.04752,0 8.174228,-0.902967 c -0.0034,4e-4 0.09843,-5.67e-4 0.09504,0 -0.0034,5.68e-4 0.0984,-7.35e-4 0.09504,0 -0.0034,7.34e-4 0.09836,-0.04842 0.09505,-0.04752 -0.0034,8.99e-4 0.0508,-0.0011 0.04752,0 -0.0032,0.0011 0.09826,-0.04874 0.09504,-0.04752 -0.0032,0.0013 0.09819,-0.04891 0.09504,-0.04752 -0.0032,0.0014 0.0506,-0.0015 0.04752,0 -0.0031,0.0015 0.09804,-0.04921 0.09505,-0.04752 -0.0031,0.0017 0.09795,-0.04935 0.09504,-0.04752 -0.0029,0.0018 0.05033,-0.04951 0.04752,-0.04752 -0.0028,0.002 0.05024,-0.04964 0.04752,-0.04752 -0.0028,0.0021 0.09765,-0.04976 0.09506,-0.04752 -0.0025,0.0023 0.05,-0.09742 0.04752,-0.09504 -0.0024,0.0024 0.04989,-0.05002 0.04752,-0.04752 -0.0024,0.0024 0.09728,-0.05012 0.09505,-0.04752 -0.0023,0.0025 0.04964,-0.09776 0.04752,-0.09504 -0.0021,0.0028 0.04951,-0.05034 0.04752,-0.04752 -0.002,0.0028 0.04935,-0.09795 0.04752,-0.09504 -0.0018,0.0029 0.04921,-0.05052 0.04752,-0.04752 -0.0017,0.0031 0.04906,-0.09812 0.04752,-0.09504 -0.0015,0.0031 0.0014,-0.05067 0,-0.04752 -0.0014,0.0032 0.04874,-0.09826 0.04752,-0.09504 -0.0013,0.0032 0.04859,-0.09832 0.04752,-0.09504 -0.0011,0.0032 8.97e-4,-0.05084 0,-0.04752 -8.97e-4,0.0034 0.04825,-0.09841 0.04752,-0.09504 -7.32e-4,0.0034 5.64e-4,-0.09844 0,-0.09506 -5.64e-4,0.0034 3.97e-4,-0.09846 0,-0.09504 -3.97e-4,0.0034 2.27e-4,-0.05095 0,-0.04752 -2.27e-4,0.0035 0.04759,-0.09849 0.04752,-0.09506 -5.7e-5,0.0035 -0.04763,-0.09848 -0.04752,-0.09504 1.12e-4,0.0035 -2.83e-4,-0.09847 0,-0.09504 1.41e-4,0.0017 0.0024,-0.02538 0,-0.04752 l 0,-0.04752 -1.378212,-12.736587 c 3.99e-4,0.0034 -5.68e-4,-0.09843 0,-0.09504 5.66e-4,0.0034 -7.35e-4,-0.09839 0,-0.09504 7.33e-4,0.0034 -0.04842,-0.09836 -0.04752,-0.09504 9.01e-4,0.0034 -0.0011,-0.0508 0,-0.04752 0.0011,0.0032 -0.04874,-0.09826 -0.04752,-0.09504 0.0013,0.0032 -0.04891,-0.0982 -0.04752,-0.09505 0.0014,0.0032 -0.0015,-0.0506 0,-0.04752 0.0015,0.0031 -0.04921,-0.09805 -0.04752,-0.09504 0.0017,0.0031 -0.04935,-0.09795 -0.04752,-0.09504 0.0018,0.0029 -0.0495,-0.05034 -0.04752,-0.04752 0.002,0.0028 -0.04963,-0.05023 -0.04752,-0.04752 0.0021,0.0028 -0.04976,-0.09765 -0.04752,-0.09504 0.0023,0.0025 -0.09742,-0.05 -0.09504,-0.04752 0.0024,0.0024 -0.05002,-0.04988 -0.04752,-0.04752 0.0024,0.0024 -0.05012,-0.09728 -0.04752,-0.09504 0.0025,0.0023 -0.09776,-0.04962 -0.09504,-0.04752 0.0028,0.0021 -0.05033,-0.04948 -0.04752,-0.04752 0.0028,0.002 -0.09795,-0.04935 -0.09504,-0.04752 0.0029,0.0018 -0.05052,-0.04921 -0.04752,-0.04752 0.0031,0.0017 -0.09812,-0.04906 -0.09504,-0.04752 0.0031,0.0015 -0.05067,-0.0014 -0.04752,0 0.0032,0.0014 -0.09826,-0.04874 -0.09504,-0.04752 0.0032,0.0013 -0.09832,-0.04859 -0.09504,-0.04752 0.0032,0.0011 -0.05084,-8.97e-4 -0.04752,0 0.0034,8.97e-4 -0.09841,-0.04825 -0.09505,-0.04752 0.0034,7.31e-4 -0.09844,-5.65e-4 -0.09505,0 0.0034,5.64e-4 -0.09846,-3.97e-4 -0.09504,0 0.0034,3.96e-4 -0.05095,-2.27e-4 -0.04752,0 0.0035,2.26e-4 -0.09849,-0.04759 -0.09505,-0.04752 0.0035,5.8e-5 -0.09847,0.04763 -0.09504,0.04752 0.0035,-1.13e-4 -0.09847,2.83e-4 -0.09504,0 0.0017,-1.42e-4 -0.02538,-0.0024 -0.04752,0 -0.02214,0.0024 -0.04923,2.26e-4 -0.04752,0 l -0.61782,0.04752 c 0.525203,-6.541374 5.880806,-12.195605 13.354407,-13.021735 7.45454,-0.824024 13.91532,3.493028 15.87321,9.742538 l -0.617819,0.09506 -0.04752,0 c -0.02205,0.0032 -0.04921,2.84e-4 -0.04752,0 0.0034,-5.68e-4 -0.0984,7.33e-4 -0.09504,0 0.0034,-7.35e-4 -0.09836,0.04842 -0.09504,0.04752 0.0034,-9.01e-4 -0.0508,0.0011 -0.04752,0 0.0032,-0.0011 -0.09826,0.04874 -0.09504,0.04752 0.0032,-0.0013 -0.09819,0.04891 -0.09504,0.04752 0.0032,-0.0014 -0.0506,0.0015 -0.04752,0 0.0031,-0.0015 -0.09805,0.04921 -0.09504,0.04752 0.0031,-0.0017 -0.09795,0.04935 -0.09504,0.04752 0.0029,-0.0018 -0.05033,0.04951 -0.04752,0.04752 0.0028,-0.002 -0.05023,0.04963 -0.04752,0.04752 0.0028,-0.0021 -0.09765,0.04976 -0.09504,0.04752 0.0025,-0.0023 -0.05,0.09742 -0.04752,0.09504 0.0024,-0.0024 -0.04989,0.05002 -0.04752,0.04752 0.0024,-0.0024 -0.09728,0.05012 -0.09504,0.04752 0.0023,-0.0025 -0.04962,0.09776 -0.04752,0.09504 0.0021,-0.0028 -0.04948,0.05033 -0.04752,0.04752 0.002,-0.0028 -0.04935,0.09795 -0.04752,0.09504 0.0018,-0.0029 -0.04921,0.05052 -0.04752,0.04752 0.0017,-0.0031 -0.04906,0.09812 -0.04752,0.09504 0.0015,-0.0031 -0.0014,0.05067 0,0.04752 0.0014,-0.0032 -0.04874,0.09826 -0.04752,0.09504 0.0013,-0.0032 -0.04859,0.09832 -0.04752,0.09504 0.0011,-0.0032 -8.97e-4,0.05084 0,0.04752 8.97e-4,-0.0034 -0.04825,0.09841 -0.04752,0.09504 7.3e-4,-0.0034 -5.65e-4,0.09844 0,0.09504 5.64e-4,-0.0034 -3.98e-4,0.09846 0,0.09504 3.96e-4,-0.0034 -2.27e-4,0.05095 0,0.04752 2.25e-4,-0.0035 -0.04759,0.09849 -0.04752,0.09504 5.8e-5,-0.0035 0.04763,0.09849 0.04752,0.09506 -1.13e-4,-0.0035 2.82e-4,0.09847 0,0.09504 -1.43e-4,-0.0017 -0.0024,0.02538 0,0.04752 l 0,0.04752 1.378212,12.689064 c -4e-4,-0.0034 5.67e-4,0.09843 0,0.09504 -5.67e-4,-0.0034 7.35e-4,0.0984 0,0.09504 -7.35e-4,-0.0034 0.04842,0.09836 0.04752,0.09504 -9e-4,-0.0034 0.0011,0.0508 0,0.04752 -0.0011,-0.0032 0.04874,0.09826 0.04752,0.09504 -0.0013,-0.0032 0.04891,0.09819 0.04752,0.09504 -0.0014,-0.0032 0.0015,0.0506 0,0.04752 -0.0015,-0.0031 0.04921,0.09805 0.04752,0.09504 -0.0017,-0.0031 0.04935,0.09795 0.04752,0.09504 -0.0018,-0.0029 0.04951,0.05034 0.04752,0.04752 -0.002,-0.0028 0.04964,0.05023 0.04752,0.04752 -0.0021,-0.0028 0.04976,0.09765 0.04752,0.09504 -0.0023,-0.0025 0.09742,0.05 0.09505,0.04752 -0.0024,-0.0024 0.05001,0.04989 0.04752,0.04752 -0.0024,-0.0024 0.05012,0.09728 0.04752,0.09504 -0.0025,-0.0023 0.09776,0.04962 0.09504,0.04752 -0.0028,-0.0021 0.05034,0.04948 0.04752,0.04752 -0.0028,-0.002 0.09795,0.04935 0.09505,0.04752 -0.0029,-0.0018 0.05052,0.04921 0.04752,0.04752 -0.0031,-0.0017 0.09812,0.04906 0.09504,0.04752 -0.0031,-0.0015 0.05067,0.0014 0.04752,0 -0.0032,-0.0014 0.09826,0.04874 0.09504,0.04752 -0.0032,-0.0013 0.09832,0.04859 0.09504,0.04752 -0.0032,-0.0011 0.05084,8.97e-4 0.04752,0 -0.0034,-8.97e-4 0.0984,0.04825 0.09504,0.04752 -0.0034,-7.3e-4 0.09844,5.65e-4 0.09504,0 -0.0034,-5.64e-4 0.09846,3.98e-4 0.09504,0 -0.0034,-3.96e-4 0.05095,2.27e-4 0.04752,0 -0.0035,-2.26e-4 0.09849,0.04759 0.09504,0.04752 -0.0035,-5.9e-5 0.09847,-0.04763 0.09504,-0.04752 -0.0035,1.14e-4 0.09847,-2.82e-4 0.09504,0 -0.0017,1.42e-4 0.02538,0.0024 0.04752,0 l 0.04752,0 2.471277,-0.237623 c 0.04419,0.191634 0.07268,0.369612 0.142575,0.570296 0.661701,1.899888 1.878609,3.287184 3.374245,4.087114 2.623481,1.403149 5.399511,1.334394 7.413835,1.900983 1.234495,0.983709 2.350635,1.869624 2.946523,2.756426 a 0.96825613,0.96825613 0 0 0 0,0.04752 c -0.002,-0.0028 0.04959,0.05015 0.04752,0.04752 -0.0021,-0.0025 0.09724,0.09758 0.09505,0.09504 -0.0021,-0.0025 0.04983,0.04994 0.04752,0.04752 -0.0023,-0.0024 0.04996,0.04984 0.04752,0.04752 -0.0024,-0.0023 0.05007,0.04972 0.04752,0.04752 -0.0025,-0.0021 0.09768,0.04958 0.09504,0.04752 -0.0025,-0.0021 0.05026,0.04945 0.04752,0.04752 -0.0028,-0.002 0.09788,0.04933 0.09504,0.04752 -0.0029,-0.0018 0.05043,0.04919 0.04752,0.04752 -0.0029,-0.0017 0.09803,0.04905 0.09504,0.04752 -0.0031,-0.0015 0.05058,0.04889 0.04752,0.04752 -0.0031,-0.0014 0.09816,0.04874 0.09505,0.04752 -0.0031,-0.0013 0.0507,0.0011 0.04752,0 -0.0032,-0.0011 0.09827,0.04843 0.09504,0.04752 -0.0032,-9.13e-4 0.0983,7.58e-4 0.09504,0 -0.0032,-7.57e-4 0.09833,0.04812 0.09505,0.04752 -0.0034,-5.99e-4 0.05084,4.39e-4 0.04752,0 -0.0034,-4.4e-4 0.09837,2.78e-4 0.09504,0 -0.0034,-2.79e-4 0.0984,1.17e-4 0.09504,0 -0.0034,-1.17e-4 0.0984,-4.5e-5 0.09504,0 -0.0034,4.6e-5 0.05087,-2.07e-4 0.04752,0 -0.0034,2.07e-4 0.09837,-3.68e-4 0.09504,0 -0.0034,3.68e-4 0.09835,-5.29e-4 0.09504,0 -0.0034,5.29e-4 0.09832,-0.04821 0.09504,-0.04752 -0.0034,6.88e-4 0.05077,-8.45e-4 0.04752,0 -0.0032,8.46e-4 0.09825,-0.04853 0.09504,-0.04752 -0.0032,0.001 0.09819,-0.0012 0.09504,0 -0.0032,0.0012 0.05061,-0.04884 0.04752,-0.04752 -0.0031,0.0013 0.09806,-0.0015 0.09504,0 -0.0031,0.0015 0.05047,-0.04912 0.04752,-0.04752 -0.0029,0.0015 0.09791,-0.04926 0.09504,-0.04752 -0.0029,0.0017 0.05029,-0.0494 0.04752,-0.04752 a 0.96825613,0.96825613 0 0 0 0.04752,0 l 1.235639,-0.855442 c -0.0028,0.002 0.05015,-0.04959 0.04752,-0.04752 -0.0025,0.0021 0.09758,-0.09724 0.09504,-0.09504 -0.0025,0.0021 0.04994,-0.04983 0.04752,-0.04752 -0.0024,0.0023 0.04983,-0.04996 0.04752,-0.04752 -0.0023,0.0024 0.04972,-0.05007 0.04752,-0.04752 -0.0021,0.0025 0.04958,-0.09768 0.04752,-0.09504 -0.0021,0.0025 0.04945,-0.05026 0.04752,-0.04752 -0.002,0.0028 0.04931,-0.09788 0.04752,-0.09504 -0.0018,0.0029 0.04918,-0.05043 0.04752,-0.04752 -0.0017,0.0029 0.04905,-0.09804 0.04752,-0.09504 -0.0015,0.0031 0.04889,-0.05058 0.04752,-0.04752 -0.0014,0.0031 0.04874,-0.09816 0.04752,-0.09504 -0.0013,0.0031 0.0011,-0.0507 0,-0.04752 -0.0011,0.0032 0.04843,-0.09828 0.04752,-0.09505 -9.14e-4,0.0032 7.57e-4,-0.0983 0,-0.09505 -7.58e-4,0.0032 0.04812,-0.09833 0.04752,-0.09504 -5.99e-4,0.0034 4.39e-4,-0.05084 0,-0.04752 -4.39e-4,0.0034 2.78e-4,-0.09837 0,-0.09505 -2.78e-4,0.0034 1.17e-4,-0.0984 0,-0.09504 -1.17e-4,0.0034 -4.6e-5,-0.0984 0,-0.09504 4.6e-5,0.0034 -2.07e-4,-0.05087 0,-0.04752 2.07e-4,0.0034 -3.68e-4,-0.09838 0,-0.09504 3.68e-4,0.0034 -5.29e-4,-0.09835 0,-0.09504 5.29e-4,0.0034 -0.04821,-0.09832 -0.04752,-0.09504 6.87e-4,0.0034 -8.46e-4,-0.05077 0,-0.04752 8.45e-4,0.0032 -0.04853,-0.09825 -0.04752,-0.09504 0.001,0.0032 -0.0012,-0.09819 0,-0.09504 0.0012,0.0032 -0.04884,-0.05061 -0.04752,-0.04752 0.0013,0.0031 -0.0015,-0.09806 0,-0.09504 0.0015,0.0031 -0.04912,-0.05046 -0.04752,-0.04752 0.0015,0.0029 -0.04926,-0.09791 -0.04752,-0.09504 0.0017,0.0029 -0.0494,-0.05029 -0.04752,-0.04752 -1.273887,-1.895799 -2.923969,-3.142298 -4.229687,-4.182163 a 0.96825613,0.96825613 0 0 0 -0.09504,-0.04752 0.96825613,0.96825613 0 0 0 -0.142574,-0.09504 c 0.0013,8.72e-4 -0.03095,0.01039 -0.04752,0 a 0.96825613,0.96825613 0 0 0 -0.04752,-0.04752 c 0.0014,7.97e-4 -0.03038,0.0094 -0.04752,0 -0.0257,-0.01415 -0.04962,-0.0486 -0.04752,-0.04752 0.0035,0.0018 -0.09864,-0.04912 -0.09504,-0.04752 0.0036,0.0015 -0.09873,-0.04891 -0.09504,-0.04752 a 0.96825613,0.96825613 0 0 0 -0.04752,0 l -0.09504,-0.04752 c -0.0163,-0.0056 -0.03123,0.0055 -0.04752,0 -1.552911,-0.524503 -3.044558,-0.817134 -4.277076,-1.045478 -1.245448,-0.23074 -2.23786,-0.460936 -2.708901,-0.712869 -0.448958,-0.240119 -0.709505,-0.456276 -0.902967,-0.807918 l 0.380196,-0.04752 c -0.0034,4e-4 0.09844,-5.67e-4 0.09505,0 -0.0034,5.67e-4 0.0984,-7.35e-4 0.09504,0 -0.0034,7.35e-4 0.09836,-0.04842 0.09504,-0.04752 -0.0034,9e-4 0.0508,-0.0011 0.04752,0 -0.0032,0.0011 0.09826,-0.04874 0.09505,-0.04752 -0.0032,0.0013 0.09819,-0.04891 0.09504,-0.04752 -0.0032,0.0014 0.0506,-0.0015 0.04752,0 -0.0031,0.0015 0.09804,-0.04921 0.09504,-0.04752 -0.0031,0.0017 0.09795,-0.04935 0.09504,-0.04752 -0.0029,0.0018 0.05034,-0.04951 0.04752,-0.04752 -0.0028,0.002 0.05023,-0.04963 0.04752,-0.04752 -0.0028,0.0021 0.09765,-0.04976 0.09504,-0.04752 -0.0025,0.0023 0.05,-0.09742 0.04752,-0.09504 -0.0024,0.0024 0.0499,-0.05001 0.04752,-0.04752 -0.0024,0.0024 0.09728,-0.05012 0.09504,-0.04752 -0.0023,0.0025 0.04962,-0.09776 0.04752,-0.09504 -0.0021,0.0028 0.04948,-0.05034 0.04752,-0.04752 -0.002,0.0028 0.04935,-0.09795 0.04752,-0.09504 -0.0018,0.0029 0.04921,-0.05052 0.04752,-0.04752 -0.0017,0.0031 0.04906,-0.09812 0.04752,-0.09504 -0.0015,0.0031 0.0014,-0.05067 0,-0.04752 -0.0014,0.0032 0.04874,-0.09826 0.04752,-0.09504 -0.0013,0.0032 0.04859,-0.09832 0.04752,-0.09506 -0.0011,0.0032 8.97e-4,-0.05084 0,-0.04752 -8.98e-4,0.0034 0.04825,-0.09841 0.04752,-0.09504 -7.32e-4,0.0034 5.64e-4,-0.09844 0,-0.09504 -5.64e-4,0.0034 3.96e-4,-0.09846 0,-0.09506 -3.97e-4,0.0034 2.27e-4,-0.05095 0,-0.04752 -2.27e-4,0.0035 0.04759,-0.09848 0.04752,-0.09504 -5.7e-5,0.0035 -0.04763,-0.09849 -0.04752,-0.09506 1.12e-4,0.0035 -2.83e-4,-0.09847 0,-0.09504 1.42e-4,0.0017 0.0024,-0.02538 0,-0.04752 l 0,-0.04752 -1.378213,-12.736588 c 4e-4,0.0034 -5.67e-4,-0.09843 0,-0.09504 5.68e-4,0.0034 -7.35e-4,-0.0984 0,-0.09504 7.34e-4,0.0034 -0.04842,-0.09836 -0.04752,-0.09504 9.01e-4,0.0034 -0.0011,-0.0508 0,-0.04752 0.0011,0.0032 -0.04874,-0.09826 -0.04752,-0.09504 0.0013,0.0032 -0.04891,-0.09819 -0.04752,-0.09504 0.0014,0.0032 -0.0015,-0.0506 0,-0.04752 0.0015,0.0031 -0.04921,-0.09805 -0.04752,-0.09504 0.0017,0.0031 -0.04935,-0.09795 -0.04752,-0.09505 0.0018,0.0029 -0.04951,-0.05033 -0.04752,-0.04752 0.002,0.0028 -0.04964,-0.05023 -0.04752,-0.04752 0.0021,0.0028 -0.04976,-0.09765 -0.04752,-0.09506 0.0023,0.0025 -0.09742,-0.05 -0.09504,-0.04752 0.0024,0.0024 -0.05002,-0.04989 -0.04752,-0.04752 0.0024,0.0024 -0.05013,-0.09728 -0.04752,-0.09504 0.0025,0.0023 -0.09776,-0.04962 -0.09504,-0.04752 0.0028,0.0021 -0.05034,-0.04948 -0.04752,-0.04752 0.0028,0.002 -0.09795,-0.04935 -0.09504,-0.04752 0.0029,0.0018 -0.05052,-0.04921 -0.04752,-0.04752 0.0031,0.0017 -0.09812,-0.04906 -0.09504,-0.04752 0.0031,0.0015 -0.05067,-0.0014 -0.04752,0 0.0032,0.0014 -0.09826,-0.04874 -0.09504,-0.04752 0.0032,0.0013 -0.09832,-0.04859 -0.09504,-0.04752 0.0032,0.0011 -0.05084,-8.97e-4 -0.04752,0 0.0034,8.97e-4 -0.0984,-0.04825 -0.09504,-0.04752 0.0034,7.31e-4 -0.09844,-5.65e-4 -0.09504,0 0.0034,5.64e-4 -0.09846,-3.97e-4 -0.09504,0 0.0034,3.96e-4 -0.05095,-2.26e-4 -0.04752,0 0.0035,2.26e-4 -0.09849,-0.04759 -0.09506,-0.04752 0.0035,5.9e-5 -0.09847,0.04763 -0.09504,0.04752 0.0035,-1.13e-4 -0.09847,2.83e-4 -0.09504,0 0.0017,-1.42e-4 -0.02538,-0.0024 -0.04752,0 -0.02214,0.0024 -0.04923,2.26e-4 -0.04752,0 l -0.950491,0.09504 C 60.849765,25.340932 52.271597,19.035594 42.425386,19.194587 z" />
      <path
         inkscape:connector-curvature="0"
         style="opacity:0.40086209;color:#000000;fill:#2e3436;fill-opacity:1;fill-rule:nonzero;stroke:none;stroke-width:1;marker:none;visibility:visible;display:inline;overflow:visible;filter:url(#filter3973);enable-background:accumulate"
         id="path3943"
         transform="matrix(1.5261199,0,0,1.1665966,25.152791,27.194946)"
         d="m 32.703689,42.254757 a 20.373514,2.8284271 0 1 1 -40.7470287,0 20.373514,2.8284271 0 1 1 40.7470287,0 z" />
      <path
         inkscape:connector-curvature="0"
         style="color:#000000;fill:#7f5785;fill-opacity:1;fill-rule:nonzero;stroke:#3d2a3f;stroke-width:1.5207864;stroke-linecap:butt;stroke-linejoin:miter;stroke-miterlimit:4;stroke-opacity:1;stroke-dasharray:none;stroke-dashoffset:0;marker:none;visibility:visible;display:inline;overflow:visible;enable-background:accumulate"
         id="path4800-4"
         d="m 36.186353,56.479986 c -2.094287,-4.338501 -1.802227,-30.82883 5.230033,-31.094709 7.03226,-0.265879 8.906267,22.767527 9.588964,29.119143 0.682696,6.351618 -1.573521,12.048871 13.552449,8.564422 6.719079,-1.547821 10.514235,-5.264603 10.050608,4.000782 -0.463628,9.265384 -17.210803,9.536567 -25.122971,10.176166 -21.246382,1.20803 -37.401059,-0.630046 -37.188561,-5.880359 0.212514,-5.250329 0.48322,-7.448328 4.387021,-6.735182 26.09854,4.767672 21.791854,-3.407577 19.502457,-8.150263 z" />
      <rect
         style="color:#000000;fill:#000000;fill-opacity:1;fill-rule:nonzero;stroke:none;stroke-width:1;marker:none;visibility:visible;display:inline;overflow:visible;enable-background:accumulate"
         id="rect4084"
         transform="matrix(0.9939459,-0.10987061,0.10987061,0.9939459,0,0)"
         y="42.774986"
         x="51.952583"
         height="12.831637"
         width="7.9841299" />
      <rect
         style="color:#000000;fill:#000000;fill-opacity:1;fill-rule:nonzero;stroke:none;stroke-width:1;marker:none;visibility:visible;display:inline;overflow:visible;enable-background:accumulate"
         id="rect4082"
         transform="matrix(0.9939459,-0.10987061,0.10987061,0.9939459,0,0)"
         y="42.849148"
         x="15.549903"
         height="12.831637"
         width="8.2692776" />
      <path
         inkscape:connector-curvature="0"
         style="opacity:0.14655169;fill:none;stroke:#ffffff;stroke-width:1.52078652;stroke-linecap:butt;stroke-linejoin:miter;stroke-miterlimit:4;stroke-opacity:1;stroke-dasharray:none"
         id="path117-4"
         d="m 37.672928,38.346992 c -0.491099,6.98059 -0.03018,14.767275 0.237623,16.918751 0.108265,0.869753 0.422312,1.977767 1.045541,3.51682 0.740718,1.829189 0.963794,4.095466 -0.285147,5.797998 -1.248942,1.702533 -4.338138,2.69771 -7.698983,2.994049 -3.360844,0.296339 -8.026919,-0.02801 -14.637571,-1.235639 -0.817566,-0.149357 -1.262014,-0.101238 -1.425736,-0.04752 -0.163724,0.05371 -0.153398,0.0301 -0.285149,0.285147 -0.263499,0.510111 -0.512299,2.240535 -0.617819,4.847507 -0.0086,0.21223 0.04149,0.376533 0.285147,0.665344 0.24366,0.288811 0.754267,0.671081 1.520787,1.045541 1.533041,0.74892 4.034042,1.437209 7.271261,1.900983 6.463966,0.926048 15.752424,1.071669 26.281093,0.475246 0.01323,-0.0011 0.0342,0.0011 0.04752,0 4.034287,-0.324494 10.071352,-0.571341 15.017768,-1.805934 2.481373,-0.619334 4.668657,-1.500057 6.130671,-2.613853 1.462014,-1.113794 2.238648,-2.334913 2.328705,-4.134638 0.110363,-2.205442 -0.09139,-3.53428 -0.285148,-3.992064 -0.19377,-0.457785 0.026,-0.229777 -0.380197,-0.237623 -0.812395,-0.0157 -3.685403,1.169986 -7.27126,1.996032 -3.872394,0.892053 -6.666936,1.257285 -8.887097,1.093066 -2.22016,-0.164222 -3.989918,-0.958458 -5.037603,-2.281183 -1.047685,-1.322723 -1.294853,-2.876914 -1.425738,-4.372261 -0.130879,-1.495347 -0.128233,-3.007398 -0.285148,-4.46731 -0.34804,-3.238075 -0.973283,-10.776205 -2.376228,-17.393997 -1.868526,-11.990713 -8.900015,-15.469749 -9.267294,1.04554 z" />
      <path
         inkscape:connector-curvature="0"
         style="opacity:0.02586209;fill:#ffffff;fill-opacity:1;fill-rule:evenodd;stroke:none"
         id="path3144-3"
         d="m 70.802178,63.815387 c -14.95818,8.08283 -32.407101,4.54879 -55.938435,8.449671 0.06535,0.03054 0.09256,-0.205755 0.162151,-0.175578 1.525069,0.661262 4.065728,1.50931 7.296871,1.921961 6.462301,0.825312 16.26811,1.271862 26.815115,0.741985 9.15669,-0.455487 18.240074,-1.671796 20.868075,-4.382055 4.445636,-3.782245 0.227896,-8.332037 0.796223,-6.555984 z" />
      <path
         inkscape:connector-curvature="0"
         style="fill:url(#radialGradient3853);fill-opacity:1;stroke:#000000;stroke-width:1.52078617;stroke-miterlimit:4;stroke-opacity:1;stroke-dasharray:none"
         id="path2892-3"
         d="m 41.350949,45.723672 a 7.4656983,14.071386 2.8081545 1 1 -14.914648,-0.70732 7.4656983,14.071386 2.8081545 1 1 14.914648,0.70732 z" />
      <path
         inkscape:connector-curvature="0"
         style="fill:#000000;fill-opacity:1;fill-rule:nonzero;stroke:none;stroke-width:1;marker:none;visibility:visible;display:inline;overflow:visible"
         id="path7470-3"
         d="m 38.006578,48.911212 a 3.4971014,4.0059149 15.926459 1 1 -7.043499,-0.190414 3.4971014,4.0059149 15.926459 1 1 7.043499,0.190414 z" />
      <path
         inkscape:connector-curvature="0"
         style="fill:url(#radialGradient3849);fill-opacity:1;stroke:#000000;stroke-width:1.5207864;stroke-miterlimit:4;stroke-opacity:1;stroke-dasharray:none"
         id="path8367-1"
         d="M 59.737273,43.816722 A 14.072258,7.4652672 84.13197 1 1 44.880307,45.297573 14.072258,7.4652672 84.13197 1 1 59.737273,43.816722 z" />
      <path
         inkscape:connector-curvature="0"
         style="fill:#000000;fill-opacity:1;fill-rule:nonzero;stroke:none;stroke-width:1;marker:none;visibility:visible;display:inline;overflow:visible"
         id="path8369-4"
         d="m 55.966658,48.732466 a 3.1456336,4.2889447 19.74614 1 1 -6.361468,-0.565562 3.1456336,4.2889447 19.74614 1 1 6.361468,0.565562 z" />
      <path
         inkscape:connector-curvature="0"
         style="color:#000000;fill:#000000;fill-opacity:1;fill-rule:nonzero;stroke:none;stroke-width:1;marker:none;visibility:visible;display:inline;overflow:visible;enable-background:accumulate"
         id="path4113"
         d="m 40.429354,21.048045 c -10.748337,1.188119 -18.540243,10.210819 -17.441521,20.150422 0.07601,0.687545 0.225233,1.38504 0.380196,2.043557 l 2.708902,-0.332672 C 25.910909,42.258837 25.77237,41.597563 25.696733,40.91332 24.750775,32.355691 31.460584,24.589774 40.714502,23.566848 c 9.253914,-1.022926 17.541103,5.081929 18.487061,13.639555 0.07565,0.684244 0.06748,1.372485 0.04752,2.043557 l 2.708901,-0.285148 c 0.0074,-0.676463 0.0285,-1.356012 -0.04752,-2.043557 C 60.811756,26.981651 51.17769,19.859926 40.429353,21.048045 z" />
      <path
         inkscape:connector-curvature="0"
         style="font-size:medium;font-style:normal;font-variant:normal;font-weight:normal;font-stretch:normal;text-indent:0;text-align:start;text-decoration:none;line-height:normal;letter-spacing:normal;word-spacing:normal;text-transform:none;direction:ltr;block-progression:tb;writing-mode:lr-tb;text-anchor:start;baseline-shift:baseline;color:#000000;fill:#000000;fill-opacity:1;stroke:none;stroke-width:1px;marker:none;visibility:visible;display:inline;overflow:visible;enable-background:accumulate;font-family:Sans;-inkscape-font-specification:Sans"
         id="path4098"
         d="m 61.815416,44.715286 c -0.284823,2.775522 -0.148171,4.803695 0.380196,6.32077 0.528373,1.517074 1.485906,2.533349 2.613852,3.136622 2.226402,1.190775 4.989676,1.085299 7.461359,1.900983 1.316247,1.045884 2.616885,2.058166 3.469295,3.326721 l 1.235638,-0.855442 c -1.071234,-1.594213 -2.556958,-2.687227 -3.897015,-3.754443 l -0.09504,-0.09504 -0.142574,-0.04752 c -2.825849,-0.963369 -5.609504,-0.939269 -7.318789,-1.853465 -0.854643,-0.457099 -1.483731,-1.083161 -1.900983,-2.28118 -0.417252,-1.19802 -0.556719,-2.961491 -0.285149,-5.607901 l -1.520785,-0.190099 z" />
    </g>
  </g>
</svg>
